<svg version="1.2" xmlns="http://www.w3.org/2000/svg" viewBox="0 0 171 249" width="171" height="249">
	<title>New Project</title>
	<style>
		.s0 { fill: #413877 } 
		.s1 { fill: #00c47d } 
	</style>
	<path id="&lt;Path&gt;" class="s0" d="m170.3 114.1h-169.6v-14.6h169.6z"/>
	<path id="&lt;Path&gt;" class="s1" d="m88.3 89.2c0 0-17.6-102.4 48.2-87.5 0 0 69.9 24.3-38.5 89.7 0 0 59.8-44.8 35.1-68-19.5-18.3-49.7 16.8-44.8 65.8z"/>
	<path id="&lt;Path&gt;" class="s1" d="m86.1 90.1c0 0-2-72-44.6-52.9 0 0-44.2 26 38.3 55.7 0 0-46.7-22.3-33.1-41.4 10.8-15.1 36.1 4.7 39.4 38.6z"/>
	<path id="&lt;Path&gt;" class="s0" d="m38 150.1l8.8 72.9v0.5h76.7v-0.5l8.9-73.2h-93.7c-0.2 0-0.5 0.2-0.7 0.3z"/>
	<path id="&lt;Compound Path&gt;" fill-rule="evenodd" class="s0" d="m165 124.6l-17.5 123.9h-124l-17.5-123.9zm-13.4 25.7v-0.6c0-10.4-8.5-18.9-18.9-18.9h-93.9c-10.8 0-19.9 8.7-19.9 18.9v0.6l9 74c0.4 10.1 8.7 18.2 18.9 18.2h76.9c10.2 0 18.5-8.1 18.9-18.2z"/>
</svg>