<svg version="1.2" xmlns="http://www.w3.org/2000/svg" viewBox="0 0 708 274" width="708" height="274">
	<title>Oblugift</title>
	<style>
		.s0 { fill: #413877 } 
		.s1 { fill: #00c47d } 
	</style>
	<g id="Layer 1">
		<g id="&lt;Group&gt;">
			<g id="&lt;Group&gt;">
				<g id="&lt;Group&gt;">
					<path id="&lt;Path&gt;" class="s0" d="m170.3 114.1h-169.6v-14.6h169.6z"/>
				</g>
			</g>
			<g id="&lt;Group&gt;">
				<g id="&lt;Group&gt;">
					<path id="&lt;Compound Path&gt;" class="s0" d="m262.5 215q0 2.6-0.6 5.5-0.6 2.9-1.9 5.7-1.2 2.9-3.2 5.5-2 2.6-4.9 4.6-2.9 2-6.6 3.2-3.7 1.2-8.4 1.2h-33.1q-2.6 0-5.5-0.6-2.9-0.6-5.7-1.9-2.9-1.2-5.5-3.2-2.6-2.1-4.6-4.9-2-2.9-3.2-6.6-1.2-3.8-1.2-8.5v-82.7h18.3v82.7q0 3.4 2.1 5.4 2.1 2 5.3 2h33.1q3.4 0 5.3-2.1 2-2 2-5.3v-24.8q0-3.5-2.1-5.4-2-2-5.2-2h-33.1v-18.3h33.1q2.6 0 5.5 0.6 2.8 0.6 5.7 1.9 2.9 1.2 5.5 3.2 2.6 2.1 4.5 4.9 2 2.9 3.2 6.6 1.2 3.7 1.2 8.5z"/>
				</g>
			</g>
			<g id="&lt;Group&gt;">
				<g id="&lt;Group&gt;">
					<path id="&lt;Compound Path&gt;" class="s0" d="m311.6 240.7h-8.1q-4 0-8.5-1.3-4.4-1.4-8.3-4.4-3.9-3.1-6.4-8-2.6-4.9-2.6-12v-82.7h18.4v82.7q0 3.4 2.1 5.4 2.1 2 5.3 2h8.1z"/>
				</g>
			</g>
			<g id="&lt;Group&gt;">
				<g id="&lt;Group&gt;">
					<path id="&lt;Compound Path&gt;" class="s0" d="m405.6 231.5q0 1.9-0.7 3.6-0.7 1.7-1.9 3-1.3 1.2-2.9 1.9-1.7 0.7-3.6 0.7h-41.4q-3.4 0-7.3-0.8-3.8-0.8-7.5-2.5-3.8-1.7-7.3-4.4-3.5-2.6-6.1-6.4-2.6-3.7-4.2-8.7-1.5-4.9-1.5-11.1v-42.3h18.3v42.3q0 3.6 1.2 6.4 1.2 2.9 3.4 4.9 2.1 2.1 4.9 3.2 2.9 1.1 6.2 1.1h32.1v-57.9h18.3z"/>
				</g>
			</g>
			<path id="&lt;Compound Path&gt;" class="s1" d="m505.7 248q0 4.7-1.2 8.5-1.2 3.8-3.2 6.6-2 2.9-4.6 4.9-2.6 2-5.4 3.3-2.9 1.3-5.8 1.9-2.9 0.6-5.5 0.6h-33.1v-18.4h33.1q3.7 0 5.5-1.9 1.9-1.9 1.9-5.5v-57.8q0-3.6-1.9-5.5-1.8-1.9-5.5-1.9h-33.1q-3.4 0-5.4 2.1-1.9 2.1-1.9 5.3v24.8q0 3.6 1.9 5.5 1.9 1.9 5.5 1.9h33v18.3h-33.1q-2.6 0-5.5-0.6-2.9-0.6-5.7-1.9-2.9-1.2-5.5-3.2-2.6-2.1-4.6-4.9-2-2.9-3.2-6.6-1.2-3.8-1.2-8.5v-24.8q0-2.6 0.6-5.5 0.6-2.9 1.9-5.8 1.3-2.8 3.3-5.4 2-2.7 4.9-4.6 2.8-2 6.5-3.2 3.8-1.2 8.5-1.2h33.1q2.6 0 5.5 0.6 2.9 0.6 5.8 1.9 2.8 1.2 5.4 3.2 2.6 2.1 4.6 4.9 2 2.9 3.2 6.6 1.2 3.7 1.2 8.5z"/>
			<path id="&lt;Compound Path&gt;" class="s1" d="m541.1 148.9h-18.4v-16.6h18.4zm0 91.8h-18.4v-76.2h18.4z"/>
			<path id="&lt;Compound Path&gt;" fill-rule="evenodd" class="s1" d="m626.1 149.8h-41.3q-3.8 0-5.7 1.8-1.9 1.9-1.9 5.5v83.6h-18.3v-83.6q0-4.7 1.2-8.5 1.2-3.7 3.2-6.6 2-2.8 4.6-4.8 2.6-2 5.5-3.3 2.8-1.3 5.7-1.9 2.9-0.6 5.5-0.6h41.5zm0 33.1h-41.5v-18.3h41.5z"/>
			<path id="&lt;Compound Path&gt;" class="s1" d="m707.3 182.8h-32v57.9h-18.5v-57.9h-23.8v-18.3h23.8v-24.9h18.5v24.9h32z"/>
			<g id="&lt;Group&gt;">
				<path id="&lt;Path&gt;" class="s1" d="m88.3 89.2c0 0-17.6-102.4 48.2-87.5 0 0 69.9 24.3-38.5 89.7 0 0 59.8-44.8 35.1-68-19.5-18.3-49.7 16.8-44.8 65.8z"/>
				<path id="&lt;Path&gt;" class="s1" d="m86.1 90.1c0 0-2-72-44.6-52.9 0 0-44.2 26 38.3 55.7 0 0-46.7-22.3-33.1-41.4 10.8-15.1 36.1 4.7 39.4 38.6z"/>
			</g>
		</g>
		<g id="&lt;Group&gt;">
			<path id="&lt;Path&gt;" class="s0" d="m38 150.1l8.8 72.9v0.5h76.7v-0.5l8.9-73.2h-93.7c-0.2 0-0.5 0.2-0.7 0.3z"/>
			<path id="&lt;Compound Path&gt;" fill-rule="evenodd" class="s0" d="m165 124.6l-17.5 123.9h-124l-17.5-123.9zm-13.4 25.7v-0.6c0-10.4-8.5-18.9-18.9-18.9h-93.9c-10.8 0-19.9 8.7-19.9 18.9v0.6l9 74c0.4 10.1 8.7 18.2 18.9 18.2h76.9c10.2 0 18.5-8.1 18.9-18.2z"/>
		</g>
	</g>
</svg>