<svg width="85" height="85" viewBox="0 0 85 85" fill="none" xmlns="http://www.w3.org/2000/svg">
<path d="M83.897 80.4494L64.8098 61.3646C70.6794 54.7098 73.9118 46.1378 73.8978 37.2643C73.8978 27.4752 70.0867 18.2723 63.1656 11.3513C56.2446 4.43024 47.0417 0.619141 37.255 0.619141C27.4683 0.619141 18.2631 4.43024 11.3396 11.3488C4.41608 18.2675 0.607422 27.4727 0.607422 37.2619C0.607422 47.051 4.41852 56.2514 11.3396 63.1724C18.2606 70.0935 27.4634 73.907 37.2526 73.907C46.2184 73.907 54.6713 70.6749 61.3529 64.8166L80.4377 83.9014C80.6641 84.1291 80.9332 84.3097 81.2296 84.433C81.526 84.5563 81.8439 84.6197 82.1649 84.6197C82.486 84.6197 82.8038 84.5563 83.1002 84.433C83.3967 84.3097 83.6658 84.1291 83.8921 83.9014C84.3501 83.4433 84.6074 82.822 84.6074 82.1742C84.6074 81.5264 84.3501 80.9051 83.8921 80.447L83.897 80.4494ZM14.794 59.7205C8.7964 53.7204 5.49345 45.7464 5.49345 37.2643C5.49345 28.7822 8.7964 20.8057 14.794 14.8057C20.794 8.80811 28.768 5.50516 37.2526 5.50516C45.7372 5.50516 53.7112 8.80811 59.7112 14.8057C65.7088 20.8057 69.0142 28.7797 69.0142 37.2643C69.0142 45.7489 65.7088 53.7204 59.7112 59.7205C53.7112 65.7181 45.7372 69.0235 37.255 69.0235C28.7729 69.0235 20.7916 65.7181 14.794 59.7205Z" fill="black"/>
</svg>
