<svg width="34" height="17" viewBox="0 0 34 17" fill="none" xmlns="http://www.w3.org/2000/svg">
<path d="M32.6719 6.90624H4.545L9.20432 2.26949C9.72422 1.75206 9.72621 0.911155 9.20877 0.391261C8.69134 -0.1287 7.85037 -0.130625 7.33047 0.386745L0.390759 7.29299L0.389564 7.29425C-0.129002 7.81169 -0.130662 8.65531 0.389431 9.17448L0.390626 9.17574L7.33034 16.082C7.85017 16.5993 8.69114 16.5975 9.20864 16.0775C9.72608 15.5576 9.72409 14.7167 9.20419 14.1992L4.545 9.56249H32.6719C33.4054 9.56249 34 8.96789 34 8.23436C34 7.50084 33.4054 6.90624 32.6719 6.90624Z" fill="#413877"/>
</svg>
