<svg width="34" height="17" viewBox="0 0 34 17" fill="none" xmlns="http://www.w3.org/2000/svg">
<path d="M1.32812 9.56251L29.455 9.56251L24.7957 14.1993C24.2758 14.7167 24.2738 15.5576 24.7912 16.0775C25.3087 16.5974 26.1496 16.5994 26.6695 16.082L33.6092 9.17576L33.6104 9.1745C34.129 8.65706 34.1307 7.81344 33.6106 7.29427L33.6094 7.29301L26.6697 0.386766C26.1498 -0.130538 25.3089 -0.128746 24.7914 0.391281C24.2739 0.911176 24.2759 1.75208 24.7958 2.26951L29.455 6.90626L1.32812 6.90626C0.5946 6.90626 -1.4305e-06 7.50086 -1.4305e-06 8.23439C-1.4305e-06 8.96791 0.5946 9.56251 1.32812 9.56251Z" fill="#413877"/>
</svg>
